<?xml version="1.0" encoding="utf-8"?>
<!-- Generator: Adobe Illustrator 19.2.1, SVG Export Plug-In . SVG Version: 6.00 Build 0)  -->
<svg version="1.1" id="Layer_1" xmlns="http://www.w3.org/2000/svg" xmlns:xlink="http://www.w3.org/1999/xlink" x="0px" y="0px"
	 viewBox="0 0 100 76.4" style="enable-background:new 0 0 100 76.4;" xml:space="preserve">
<g>
	<path d="M61.4,5.6c-17.9,0-32.5,14.6-32.5,32.5s14.6,32.5,32.5,32.5s32.5-14.6,32.5-32.5S79.3,5.6,61.4,5.6z M61.1,35.1
		c0.1,0,0.2,0,0.2,0c0.3,0,0.6,0.1,1,0.2l9.8-9.8c0.6-0.6,1.7-0.6,2.3,0c0.6,0.6,0.6,1.7,0,2.3l-9.8,9.8c0.1,0.3,0.2,0.6,0.2,1
		c0,1.9-1.5,3.4-3.4,3.4S58,40.3,58,38.5c0-0.6,0.2-1.1,0.4-1.6l-6-6c-0.6-0.6-0.6-1.7,0-2.3c0.6-0.6,1.7-0.6,2.3,0L61.1,35.1z
		 M61.4,63.9c-14,0-25.5-11.4-25.5-25.5c0-9.1,4.9-17.5,12.6-22L44.4,15l0.9-2.6l8.8,3.1L51,24.3l-2.6-0.9l1.4-3.8
		c-6,3.7-10,10.2-10.5,17.3H41c0.9,0,1.6,0.7,1.6,1.6c0,0.9-0.7,1.6-1.6,1.6h-1.7c0.8,10.9,9.6,19.7,20.5,20.5v-1.7
		c0-0.9,0.7-1.6,1.6-1.6S63,58,63,58.9v1.7c10.9-0.8,19.7-9.6,20.5-20.5h-1.7c-0.9,0-1.6-0.7-1.6-1.6c0-0.9,0.7-1.6,1.6-1.6h1.7
		c-0.4-5-2.4-9.7-5.8-13.4c-0.6-0.7-0.6-1.7,0.1-2.3c0.7-0.6,1.7-0.6,2.3,0.1c4.4,4.7,6.8,10.8,6.8,17.3
		C86.8,52.5,75.4,63.9,61.4,63.9z"/>
	<path d="M12.6,27.1h10c0.8,0,1.5-0.7,1.5-1.5s-0.7-1.5-1.5-1.5h-10c-0.8,0-1.5,0.7-1.5,1.5S11.8,27.1,12.6,27.1z"/>
	<path d="M25.1,36.6H7.6c-0.8,0-1.5,0.7-1.5,1.5s0.7,1.5,1.5,1.5h17.5c0.8,0,1.5-0.7,1.5-1.5S26,36.6,25.1,36.6z"/>
	<path d="M22.6,49.1h-10c-0.8,0-1.5,0.7-1.5,1.5s0.7,1.5,1.5,1.5h10c0.8,0,1.5-0.7,1.5-1.5S23.5,49.1,22.6,49.1z"/>
</g>
</svg>
