<?xml version="1.0" encoding="iso-8859-1"?>
<!-- Generator: Adobe Illustrator 19.0.0, SVG Export Plug-In . SVG Version: 6.00 Build 0)  -->
<svg version="1.1" id="Layer_1" xmlns="http://www.w3.org/2000/svg" xmlns:xlink="http://www.w3.org/1999/xlink" x="0px" y="0px"
	 viewBox="0 0 490 490" style="enable-background:new 0 0 490 490;" xml:space="preserve">
<g>
	<g>
		<g>
			<path d="M440,450V100c0-5.522-4.477-10-10-10h-70c-5.523,0-10,4.478-10,10v350h-10V190c0-5.522-4.477-10-10-10h-70
				c-5.523,0-10,4.478-10,10v260h-10V250c0-5.522-4.477-10-10-10h-70c-5.523,0-10,4.478-10,10v200h-10V320c0-5.522-4.477-10-10-10
				H60c-5.523,0-10,4.478-10,10v130H0v20h490v-20H440z M120,450H70v-75h50V450z M120,355H70v-25h50V355z M220,450h-50V305h50V450z
				 M220,285h-50v-25h50V285z M320,450h-50V245h50V450z M320,225h-50v-25h50V225z M420,450h-50V155h50V450z M420,135h-50v-25h50V135
				z"/>
			<path d="M57.072,282.072L285,54.143V90h20V30c0-5.522-4.477-10-10-10h-65v20h40.857L42.929,267.929L57.072,282.072z"/>
		</g>
	</g>
</g>
<g>
</g>
<g>
</g>
<g>
</g>
<g>
</g>
<g>
</g>
<g>
</g>
<g>
</g>
<g>
</g>
<g>
</g>
<g>
</g>
<g>
</g>
<g>
</g>
<g>
</g>
<g>
</g>
<g>
</g>
</svg>
